Coordinates
version=1
nRows=8
nColumns=42
inDegrees=yes

Units are S.I. units (second, meters, Newtons, ...)
Angles are in degrees.

endheader
time	pelvis_tilt	pelvis_list	pelvis_rotation	pelvis_tx	pelvis_ty	pelvis_tz	hip_flexion_r	hip_adduction_r	hip_rotation_r	knee_angle_r	ankle_angle_r	subtalar_angle_r	mtp_angle_r	hip_flexion_l	hip_adduction_l	hip_rotation_l	knee_angle_l	ankle_angle_l	subtalar_angle_l	mtp_angle_l	lumbar_extension	lumbar_bending	lumbar_rotation	arm_flex_r	arm_add_r	arm_rot_r	elbow_flex_r	pro_sup_r	wrist_flex_r	wrist_dev_r	arm_flex_l	arm_add_l	arm_rot_l	elbow_flex_l	pro_sup_l	wrist_flex_l	wrist_dev_l	scapula_weld_r	clavicle_weld_r	scapula_weld_l	clavicle_weld_l
      4.55000000	     -6.97691501	      1.11261336	      1.68958615	      0.17243276	      0.82661854	     -0.04519861	     43.38936164	    -15.83343627	    -11.75701283	    -61.16223042	     24.13107797	      0.00000000	      0.00000000	     44.91323361	     -6.63017197	     -8.11369416	    -64.19492954	     24.10383210	      0.00000000	      0.00000000	      0.00000000	      0.00000000	      0.00000000	      0.00000000	    -13.44731123	      0.00000000	     75.23736654	     44.95460943	      0.00000000	      0.00000000	      0.00000000	    -13.44731123	      0.00000000	     75.23736654	     44.95460943	      0.00000000	      0.00000000	      0.00000000	      0.00000000	      0.00000000	      0.00000000
      4.56000000	     -7.01957698	      1.18654294	      1.87709438	      0.17265623	      0.82281043	     -0.04420199	     44.01428875	    -15.97261059	    -11.54794072	    -62.29961772	     24.71097574	      0.00000000	      0.00000000	     45.46767458	     -6.54891733	     -7.88367491	    -65.07285335	     24.50490623	      0.00000000	      0.00000000	      0.00000000	      0.00000000	      0.00000000	      0.00000000	    -13.44895004	      0.00000000	     75.23687635	     44.95486941	      0.00000000	      0.00000000	      0.00000000	    -13.44895004	      0.00000000	     75.23687635	     44.95486941	      0.00000000	      0.00000000	      0.00000000	      0.00000000	      0.00000000	      0.00000000
      4.57000000	     -6.77484044	      1.21457870	      2.03115780	      0.17289682	      0.81957870	     -0.04322469	     44.26416010	    -16.01911484	    -11.33706764	    -63.29636475	     24.90348232	      0.00000000	      0.00000000	     45.71677799	     -6.54731811	     -7.67850650	    -65.95860497	     24.63010098	      0.00000000	      0.00000000	      0.00000000	      0.00000000	      0.00000000	      0.00000000	    -13.44932240	      0.00000000	     75.23676513	     44.95492821	      0.00000000	      0.00000000	      0.00000000	    -13.44932240	      0.00000000	     75.23676513	     44.95492821	      0.00000000	      0.00000000	      0.00000000	      0.00000000	      0.00000000	      0.00000000
      4.58000000	     -7.18529175	      1.37729319	      2.24414793	      0.17321176	      0.81534279	     -0.04241792	     45.28273347	    -16.23836812	    -11.03352750	    -64.40831095	     25.70450803	      0.00000000	      0.00000000	     46.62572094	     -6.32904597	     -7.49797463	    -66.79135839	     25.18888685	      0.00000000	      0.00000000	      0.00000000	      0.00000000	      0.00000000	      0.00000000	    -13.45203488	      0.00000000	     75.23595501	     44.95535543	      0.00000000	      0.00000000	      0.00000000	    -13.45203488	      0.00000000	     75.23595501	     44.95535543	      0.00000000	      0.00000000	      0.00000000	      0.00000000	      0.00000000	      0.00000000
      4.59000000	     -6.94027312	      1.39463885	      2.38086242	      0.17358375	      0.81238505	     -0.04146718	     45.48130193	    -16.23538270	    -10.80947398	    -65.32470991	     25.89312718	      0.00000000	      0.00000000	     46.80800008	     -6.30895743	     -7.26281884	    -67.56937675	     25.31479900	      0.00000000	      0.00000000	      0.00000000	      0.00000000	      0.00000000	      0.00000000	    -13.45236133	      0.00000000	     75.23585768	     44.95540652	      0.00000000	      0.00000000	      0.00000000	    -13.45236133	      0.00000000	     75.23585768	     44.95540652	      0.00000000	      0.00000000	      0.00000000	      0.00000000	      0.00000000	      0.00000000
      4.60000000	     -7.19411955	      1.51337526	      2.56780019	      0.17407097	      0.80859737	     -0.04072107	     46.25083782	    -16.39092998	    -10.55083464	    -66.32443089	     26.75772833	      0.00000000	      0.00000000	     47.50182750	     -6.11956898	     -7.05638078	    -68.35365410	     25.94983546	      0.00000000	      0.00000000	      0.00000000	      0.00000000	      0.00000000	      0.00000000	    -13.45413673	      0.00000000	     75.23532833	     44.95568403	      0.00000000	      0.00000000	      0.00000000	    -13.45413673	      0.00000000	     75.23532833	     44.95568403	      0.00000000	      0.00000000	      0.00000000	      0.00000000	      0.00000000	      0.00000000
      4.61000000	     -7.21860146	      1.58620558	      2.71552948	      0.17455797	      0.80542030	     -0.03989359	     46.72452839	    -16.44396398	    -10.29103522	    -67.22317648	     27.23427027	      0.00000000	      0.00000000	     47.91824733	     -6.00219457	     -6.84616610	    -69.07041592	     26.29168105	      0.00000000	      0.00000000	      0.00000000	      0.00000000	      0.00000000	      0.00000000	    -13.45551607	      0.00000000	     75.23491747	     44.95589867	      0.00000000	      0.00000000	      0.00000000	    -13.45551607	      0.00000000	     75.23491747	     44.95589867	      0.00000000	      0.00000000	      0.00000000	      0.00000000	      0.00000000	      0.00000000
      4.62000000	     -7.19027534	      1.64457443	      2.84837942	      0.17509297	      0.80245639	     -0.03909491	     47.10207464	    -16.48985463	    -10.08538535	    -68.05776575	     27.65405083	      0.00000000	      0.00000000	     48.25898173	     -5.91646186	     -6.66623617	    -69.76609934	     26.59817231	      0.00000000	      0.00000000	      0.00000000	      0.00000000	      0.00000000	      0.00000000	    -13.45644511	      0.00000000	     75.23464095	     44.95604276	      0.00000000	      0.00000000	      0.00000000	    -13.45644511	      0.00000000	     75.23464095	     44.95604276	      0.00000000	      0.00000000	      0.00000000	      0.00000000	      0.00000000	      0.00000000
